<svg width="480" height="240" viewBox="0 0 480 240" fill="none" xmlns="http://www.w3.org/2000/svg">
<rect width="480" height="240" rx="12" fill="#1B1B1B"/>
<path fill-rule="evenodd" clip-rule="evenodd" d="M385.203 157H389.968V196.276H398V198.147H389.968V215H388.114V198.147H363V193.962L385.203 157ZM388.114 196.276V158.871H386.248L364.855 194.485V196.276H388.114Z" fill="#E6E6E6"/>
<path fill-rule="evenodd" clip-rule="evenodd" d="M385.203 59H389.968V98.2764H398V100.147H389.968V117H388.114V100.147H363V95.9621L385.203 59ZM388.114 98.2764V60.8707H386.248L364.855 96.4846V98.2764H388.114Z" fill="#E6E6E6"/>
<path fill-rule="evenodd" clip-rule="evenodd" d="M404 157H434V158.851H405.879V192.374C406.3 191.567 406.801 190.769 407.393 190.007C409.776 186.944 413.606 184.522 419.419 184.522C427.472 184.522 434 190.953 434 198.886V199.761C434 208.177 427.074 215 418.53 215H404.94V213.149H418.53C426.036 213.149 432.121 207.155 432.121 199.761V198.886C432.121 191.975 426.434 186.373 419.419 186.373C414.219 186.373 410.929 188.505 408.885 191.133C406.809 193.802 405.989 197.026 405.878 199.156L404 199.108V157Z" fill="#E6E6E6"/>
<path fill-rule="evenodd" clip-rule="evenodd" d="M404 59H434V60.8513H405.879V94.3745C406.3 93.5673 406.801 92.7688 407.393 92.0073C409.776 88.9438 413.606 86.5219 419.419 86.5219C427.472 86.5219 434 92.9527 434 100.886V101.761C434 110.177 427.074 117 418.53 117H404.94V115.149H418.53C426.036 115.149 432.121 109.155 432.121 101.761V100.886C432.121 93.9752 426.434 88.3732 419.419 88.3732C414.219 88.3732 410.929 90.5048 408.885 93.1332C406.809 95.8019 405.989 99.0264 405.878 101.156L404 101.108V59Z" fill="#E6E6E6"/>
<path fill-rule="evenodd" clip-rule="evenodd" d="M417.932 30H424.156C427.597 30 430.387 32.8273 430.387 36.315V45.685C430.387 49.1727 427.597 52 424.156 52H417.932V30ZM420.424 32.526V49.474H424.156C426.221 49.474 427.895 47.7776 427.895 45.685V36.315C427.895 34.2224 426.221 32.526 424.156 32.526H420.424ZM416.107 30.3632V52H412.408L406.219 34.6944V51.4368H403.727V30.3781H407.326L413.614 47.9595V30.3632H416.107ZM362 30.3781H366.728C370.124 30.3781 372.877 33.1685 372.877 36.6106C372.877 39.8056 370.507 42.434 367.459 42.7997L372.088 49.2252V51.4368H369.596V50.0493L364.492 42.9657V51.4368H362V30.3781ZM364.492 40.2907V32.9041H366.728C368.747 32.9041 370.385 34.5636 370.385 36.6106C370.385 38.6747 368.721 40.3412 366.685 40.3169L364.492 40.2907ZM381.101 32.9041C378.956 32.9041 377.217 34.6663 377.217 36.84V45.5381C377.217 47.7118 378.956 49.474 381.101 49.474C383.246 49.474 384.984 47.7118 384.984 45.5381V36.84C384.984 34.6663 383.246 32.9041 381.101 32.9041ZM374.725 36.84C374.725 33.2712 377.58 30.3781 381.101 30.3781C384.622 30.3781 387.477 33.2712 387.477 36.84V45.5381C387.477 49.1069 384.622 52 381.101 52C377.58 52 374.725 49.1069 374.725 45.5381V36.84ZM431.051 36.44C431.051 33.0921 433.729 30.3781 437.032 30.3781H437.526C441.101 30.3781 444 33.3159 444 36.94V37.2399H441.508V36.94C441.508 34.711 439.725 32.9041 437.526 32.9041H437.032C435.106 32.9041 433.544 34.4872 433.544 36.44C433.544 37.065 433.86 37.6463 434.381 37.9802L442.133 42.9464C443.295 43.691 444 44.9874 444 46.381C444 49.4843 441.518 52 438.456 52H437.526C433.95 52 431.051 49.0622 431.051 45.4381V44.8383H433.544V45.4381C433.544 47.6671 435.326 49.474 437.526 49.474H438.456C440.141 49.474 441.508 48.0892 441.508 46.381C441.508 45.8538 441.241 45.3633 440.801 45.0816L433.049 40.1154C431.805 39.3186 431.051 37.9314 431.051 36.44ZM389.423 45.838V30.6307H391.916V45.838C391.916 47.8461 393.522 49.474 395.503 49.474C397.484 49.474 399.09 47.8461 399.09 45.838V30.6307H401.583V45.838C401.583 49.2412 398.861 52 395.503 52C392.145 52 389.423 49.2412 389.423 45.838Z" fill="#E6E6E6"/>
<path fill-rule="evenodd" clip-rule="evenodd" d="M364 126H371.072C374.327 126 376.966 128.61 376.966 131.83C376.966 135.05 374.327 137.66 371.072 137.66H366.49V146.557H364V126ZM366.49 135.197H371.072C372.952 135.197 374.476 133.689 374.476 131.83C374.476 129.97 372.952 128.463 371.072 128.463H366.49V135.197ZM384.961 128.463C382.821 128.463 381.086 130.179 381.086 132.296V140.704C381.086 142.821 382.821 144.537 384.961 144.537C387.102 144.537 388.837 142.821 388.837 140.704V132.296C388.837 130.179 387.102 128.463 384.961 128.463ZM378.596 132.296C378.596 128.819 381.446 126 384.961 126C388.477 126 391.327 128.819 391.327 132.296V140.704C391.327 144.181 388.477 147 384.961 147C381.446 147 378.596 144.181 378.596 140.704V132.296ZM400.774 126H404.101L406.605 142.428L409.671 128.381V126.006H412.161V128.644L408.155 147H404.783L402.455 131.722L400.224 147H396.486L392.603 128.64V126.006H395.094V128.385L398.248 143.3L400.774 126ZM414.262 126H425.63V128.463H416.752V135.197H424.688V137.66H416.752V144.537H425.63V147H414.262V126ZM427.916 126H435.092C438.355 126 441 128.616 441 131.843C441 135.057 438.375 137.668 435.125 137.685L433.727 137.693L439.941 144.451V146.557H437.45V145.403L430.406 137.742V146.557H427.916V126ZM430.406 135.248V128.463H435.092C436.98 128.463 438.51 129.976 438.51 131.843C438.51 133.702 436.991 135.212 435.111 135.222L430.406 135.248Z" fill="#E6E6E6"/>
<path d="M305.934 193.145V205.855H308.513V200.492H316.527V198.582H308.513V195.422H316.527V193.145H305.934Z" fill="#E6E6E6"/>
<path d="M318.462 193.145V195.422L323.669 199.636L318.462 203.761V205.855H321.133V204.386L325.14 201.19L329.147 204.386V205.855H331.978V204.066L326.798 199.694L331.978 195.643V193.145H329.147V194.665L325.14 197.912L321.133 194.665V193.145H318.462Z" fill="#E6E6E6"/>
<path fill-rule="evenodd" clip-rule="evenodd" d="M301 210V189H336V210H301ZM303.532 191.093H333.468V207.907H303.532V191.093Z" fill="#E6E6E6"/>
<path d="M198.201 166.981C195.809 165.707 190.581 163.012 188.808 162.418C186.592 161.675 191.341 149.791 199.573 147.987C201.473 147.987 205.167 150.322 207.489 152.125M269.546 143L272.607 146.236M275.668 149.473L272.607 146.236M272.607 146.236L275.034 143.637M272.607 146.236L269.546 149.473M254.243 175.576C262.37 183.817 279.298 201.912 282 208.363M190.391 176.531C188.984 177.945 186.233 181.433 186.486 184.064C186.803 187.354 189.125 190.219 188.175 192.553C187.225 194.887 183.953 197.752 184.165 199.875C184.376 201.997 185.748 202.315 185.431 203.482C185.114 204.65 182.898 206.347 183.004 208.363M222.581 209C223.984 207.178 226.411 204.333 228.842 202.129M234.19 198.92C232.759 198.995 230.799 200.355 228.842 202.129M228.842 202.129C230.906 203.641 235.183 207.132 235.774 209" stroke="#E6E6E6" stroke-width="2.5"/>
<path d="M214.669 48L207 42.2545M230.303 37.6727L225.804 26.0364M249.328 36.0727L251.32 24M264.298 44.5818L273 37.0909" stroke="#E6E6E6" stroke-width="2.5"/>
<path d="M195.283 178C193.989 178.684 191.499 180.871 191.887 184.152C192.372 188.253 194.07 190.786 193.342 192.595C192.615 194.405 189.097 197.058 189.218 200.074C189.339 203.089 190.916 203.451 190.431 204.416C189.946 205.381 187.884 207.311 188.005 209M200.257 209C200.863 207.955 201.955 205.285 201.47 202.969C200.863 200.074 209.475 194.163 209.839 191.148C210.13 188.735 209.961 186.283 209.839 185.358" stroke="#E6E6E6" stroke-width="2.5"/>
<path d="M258.561 71.5796C258.744 71.2961 259.213 70.8188 259.954 70.5025M259.954 70.5025C260.345 70.336 260.81 70.2141 261.348 70.1885C263.299 70.0958 262.741 72.5998 262.741 73.3417C262.741 74.0836 259.954 82.0591 259.397 83.0792C258.951 83.8953 257.353 84.0375 256.61 84.0066C255.929 86.4178 254.362 91.7596 253.544 93.837C252.727 95.9143 247.568 100.329 245.091 102.276H237.008L228.554 92.4459C227.811 90.0037 226.269 84.8969 226.046 84.0066C225.937 83.5705 225.556 83.0275 225.119 82.5215M259.954 70.5025C260.047 67.1829 260.177 59.9502 259.954 57.5761C259.732 55.2019 254.35 50.157 251.686 47.9312L243.325 47.0038C239.609 46.9729 231.824 47.1151 230.412 47.9312C228.647 48.9514 224.095 55.7213 223.817 57.5761C223.594 59.0599 224.343 68.7047 224.746 73.3417C224.095 72.7543 222.609 71.932 221.866 73.3417C221.122 74.7513 222.857 79.1842 223.817 81.2245C224.148 81.5083 224.664 81.9948 225.119 82.5215M264.785 83.0792C266.736 84.5631 270.768 88.1057 271.288 90.4056C271.939 93.2805 272.496 100.421 271.288 102.276C270.322 103.76 267.479 106.975 266.179 108.397M266.179 108.397L265.621 102.276M266.179 108.397C266.365 111.148 266.625 117.114 266.179 118.969C265.666 121.1 263.663 125.347 260.745 126.956M248.714 131.303C249.331 131.201 250.568 130.795 252.051 130.263M267.294 131.953L260.745 126.956M260.745 126.956C260.489 127.097 260.225 127.218 259.954 127.316C257.844 128.076 254.587 129.354 252.051 130.263M243.976 145.214C244.513 144.67 245.211 143.952 245.954 143.174M252.051 130.263C252.044 133.211 251.501 136.311 250.665 137.795C250.18 138.655 247.91 141.126 245.954 143.174M263.856 143.174H245.954M248.714 119.711C248.125 122.741 246.243 129.189 243.418 130.747C239.888 132.695 235.243 136.311 228.554 136.775C221.866 137.239 218.428 137.61 215.641 135.384C213.412 133.603 207.095 128.645 204.215 126.388M204.215 126.388C205.546 125.863 208.414 124.645 209.231 123.977M204.215 126.388C203.643 126.623 202.537 126.98 201.034 127.316M194.739 128.15C197.203 128.033 199.364 127.688 201.034 127.316M168.541 139.928C170.09 139.248 173.948 138.092 176.995 138.908C179.609 139.608 181.129 139.784 182.816 140.904M189.815 148.738C189.351 147.996 187.809 145.845 185.356 143.174C184.394 142.126 183.587 141.416 182.816 140.904M182.816 140.904C186.047 140.981 193.383 140.151 196.876 136.219C200.369 132.286 201.103 128.645 201.034 127.316M225.119 82.5215C224.127 82.3983 221.81 82.3373 220.472 83.0792C218.8 84.0066 205.794 90.6838 201.985 97.0828C199.663 97.6083 193.977 99.5682 189.815 103.204C185.207 107.229 180.381 114.164 179.402 117.694M179.225 118.876C179.214 118.548 179.276 118.149 179.402 117.694M179.402 117.694C178.445 117.934 176.085 118.895 174.301 120.824C172.072 123.235 169.285 131.303 166.776 133.344C164.77 134.976 158.756 143.112 156 146.976L157.022 153.19C157.579 153.777 158.917 155.007 159.809 155.23C160.701 155.453 162.472 155.323 163.246 155.23M163.246 155.23L161.388 153.19M163.246 155.23C166.064 157.456 173.8 161.926 182.198 162M211.182 102.276L231.62 109.603C232.673 109.912 235.318 110.493 237.473 110.344C240.167 110.159 243.233 109.881 245.091 110.808M250.107 110.344L250.665 107.562C254.226 104.966 261.348 98.0483 261.348 91.1475M228.554 72.4143L230.412 71.5796L237.473 75.4104M245.091 75.4104L253.013 72.4143L255.21 73.3417M246.13 85.5703C245.496 86.2769 243.743 87.69 241.81 87.69C239.877 87.69 238.113 86.2769 237.473 85.5703M236.319 94.4146L238.882 92.8797C239.353 93.0258 240.598 93.3182 241.81 93.3182C243.022 93.3182 244.502 93.0258 245.091 92.8797L247.229 94.4146M243.325 96.6074H240.492" stroke="#E6E6E6" stroke-width="2.5"/>
<path d="M230 78L236.592 79M246.551 79L253 78" stroke="#E6E6E6" stroke-width="2"/>
<path d="M210.439 150.721L204.465 145.329C203.888 144.692 201.937 143.555 198.751 144.112C194.769 144.808 188.449 150.721 186.631 154.026C184.813 157.331 183.081 163.592 184.553 168.289C186.025 172.985 189.401 176.116 192.345 177.246C194.7 178.151 200.252 177.623 202.734 177.246M210.439 150.721C200.829 156.722 198.751 164.027 198.751 168.289C198.751 171.698 201.406 175.681 202.734 177.246M210.439 150.721L217.451 146.547C220.395 146.141 227.303 145.329 231.389 145.329C236.497 145.329 241.778 145.416 244.549 147.591C247.319 149.765 252.946 158.113 253.379 160.549C253.812 162.984 255.37 170.637 254.072 174.55C252.773 178.464 250.695 181.073 247.925 183.769C245.709 185.925 238.286 191.567 234.852 194.118C232.803 195.538 227.182 197.527 221.087 194.118C220.178 193.516 218.538 192.082 217.451 190.166M202.734 177.246C204.552 180.062 210.04 186.588 217.451 190.166M216.499 187.682C216.676 188.571 217.02 189.407 217.451 190.166M279.438 128.11H272.339C270.232 129.675 265.811 133.832 264.98 137.937C264.149 142.042 264.634 144.576 264.98 145.329L267.611 146.923L264.98 149.33C265.182 151.127 266.261 155.035 268.962 156.287C271.663 157.539 278.052 156.809 280.909 156.287M279.438 128.11C276.944 138.894 279.38 151.388 280.909 156.287M279.438 128.11C279.669 125.269 281.567 119.257 287.316 117.935C294.501 116.283 293.809 114.456 297.705 115.152C301.6 115.848 309.998 120.37 310.518 120.892C310.677 121.052 310.807 121.941 310.911 123.126M280.909 156.287C282.991 158.292 287.809 162.7 290.432 164.288M288.441 126.197C288.89 127.258 289.883 128.839 291.444 130.3M291.444 130.3C293.294 132.032 295.944 133.597 299.436 133.937C305.877 134.563 309.969 131.125 311.21 129.328C311.175 127.701 311.077 125.031 310.911 123.126M291.444 130.3C289.404 131.571 285.29 134.493 285.152 136.024C284.978 137.937 284.372 146.025 285.152 150.547C285.931 155.07 287.316 162.375 290.432 164.288M290.432 164.288C293.549 166.201 295.281 167.419 297.705 167.68C300.129 167.941 313.374 166.462 314.76 165.94C316.145 165.419 321.079 163.679 322.205 152.895C323.33 142.112 322.984 135.328 322.811 134.632C322.638 133.937 322.905 125.795 310.911 123.126" stroke="#686868" stroke-width="2.5"/>
<rect x="312" y="99" width="14" height="2" fill="#E6E6E6"/>
<rect x="312" y="91" width="14" height="2" fill="#E6E6E6"/>
<rect x="312" y="84" width="14" height="2" fill="#E6E6E6"/>
<rect x="312" y="76" width="14" height="2" fill="#E6E6E6"/>
<rect x="312" y="69" width="14" height="2" fill="#E6E6E6"/>
<rect x="312" y="61" width="14" height="2" fill="#686868"/>
<rect x="312" y="54" width="14" height="2" fill="#686868"/>
<rect x="312" y="46" width="14" height="2" fill="#686868"/>
<rect x="312" y="38" width="14" height="2" fill="#686868"/>
<rect x="312" y="31" width="14" height="2" fill="#686868"/>
<path fill-rule="evenodd" clip-rule="evenodd" d="M58.203 157H62.9683V196.276H71V198.147H62.9683V215H61.1136V198.147H36V193.962L58.203 157ZM61.1136 196.276V158.871H59.2478L37.8547 194.485V196.276H61.1136Z" fill="#686868"/>
<path fill-rule="evenodd" clip-rule="evenodd" d="M76 157H106V158.851H77.8794V192.374C78.2996 191.567 78.8007 190.769 79.3929 190.007C81.7756 186.944 85.6064 184.522 91.4188 184.522C99.4718 184.522 106 190.953 106 198.886V199.761C106 208.177 99.0739 215 90.5302 215H76.9397V213.149H90.5302C98.036 213.149 104.121 207.155 104.121 199.761V198.886C104.121 191.975 98.4339 186.373 91.4188 186.373C86.219 186.373 82.9291 188.505 80.8848 191.133C78.8091 193.802 77.9894 197.026 77.8781 199.156L76 199.108V157Z" fill="#686868"/>
<path fill-rule="evenodd" clip-rule="evenodd" d="M40 30H52.6798V32.5485H42.487V39.5936H51.7317V42.1421H42.487V51.4329H40V30ZM55.5841 30H63.7604C67.0325 30 69.6851 32.7181 69.6851 36.071C69.6851 39.424 67.0325 42.1421 63.7604 42.1421H61.5423L68.5 49.1371V51.4329H66.013V50.207L58.0711 42.2225V51.4329H55.5841V30ZM58.0711 39.5936V32.5485H63.7604C65.659 32.5485 67.1981 34.1256 67.1981 36.071C67.1981 38.0165 65.659 39.5936 63.7604 39.5936H58.0711ZM71.2274 30H82.6628V32.5485H73.7144V39.5025H81.2999V42.051H73.7144V49.005H82.6628V51.5535H71.2274V30ZM85.5671 36.3712C85.5671 32.8525 88.3508 30 91.7847 30H95.4059C98.8398 30 101.624 32.8525 101.624 36.3712V45.1823C101.624 46.496 101.235 47.718 100.57 48.7322L102 50.1979L100.241 52L98.7989 50.5219C97.8234 51.1738 96.6573 51.5535 95.4059 51.5535H91.7847C88.3508 51.5535 85.5671 48.701 85.5671 45.1823V36.3712ZM98.7538 46.8715L96.6374 44.7029L94.8788 46.5049L96.9743 48.6522C96.4976 48.8788 95.9665 49.005 95.4059 49.005H91.7847C89.7244 49.005 88.0541 47.2935 88.0541 45.1823V36.3712C88.0541 34.26 89.7244 32.5485 91.7847 32.5485H95.4059C97.4663 32.5485 99.1365 34.26 99.1365 36.3712V45.1823C99.1365 45.7891 98.9991 46.3622 98.7538 46.8715Z" fill="#686868"/>
<path fill-rule="evenodd" clip-rule="evenodd" d="M81.5498 131.899C81.5498 128.641 84.1874 126 87.4411 126C90.6947 126 93.3323 128.641 93.3323 131.899V133.069H90.8439V131.899C90.8439 130.017 89.3204 128.492 87.4411 128.492C85.5617 128.492 84.0382 130.017 84.0382 131.899V142.101C84.0382 143.983 85.5617 145.508 87.4411 145.508C89.3204 145.508 90.8439 143.983 90.8439 142.101V140.842H93.3323V142.101C93.3323 145.359 90.6947 148 87.4411 148C84.1874 148 81.5498 145.359 81.5498 142.101V131.899ZM52.6836 141.937V126.285H55.172V141.937C55.172 143.909 56.769 145.508 58.7389 145.508C60.7088 145.508 62.3057 143.909 62.3057 141.937V126.285H64.7941V141.937C64.7941 145.285 62.0831 148 58.7389 148C55.3946 148 52.6836 145.285 52.6836 141.937ZM95.1082 126.285H97.5966V135.929H104.512V126.285H107V147.411H104.512V138.42H97.5966V147.411H95.1082V126.285ZM40 126.349H44.508C47.9217 126.349 50.689 129.12 50.689 132.538C50.689 135.94 47.9467 138.704 44.5492 138.727L42.4884 138.74V147.411H40V126.349ZM42.4884 136.249V128.84H44.508C46.5474 128.84 48.2006 130.496 48.2006 132.538C48.2006 134.57 46.5624 136.222 44.5327 136.235L42.4884 136.249ZM67.1167 126.349H70.7756L77.0668 144.421V126.765H79.5552V148H75.6776L69.6051 130.556V147.788H67.1167V126.349Z" fill="#686868"/>
<rect x="37" y="101" width="10" height="2" fill="#686868"/>
<rect x="73" y="67" width="10" height="2" transform="rotate(90 73 67)" fill="#686868"/>
<rect width="10" height="2" transform="matrix(0.701405 0.712763 -0.708468 0.705743 48 77)" fill="#686868"/>
<path d="M96.5183 77L89 84.5428L90.4817 86L98 78.4572L96.5183 77Z" fill="#686868"/>
<rect x="97" y="101" width="10" height="2" fill="#686868"/>
<circle cx="71.5" cy="102.5" r="4.5" fill="#686868"/>
<path d="M40 89L71 102" stroke="#686868" stroke-width="2.5"/>
</svg>
