<svg width="480" height="240" viewBox="0 0 480 240" fill="none" xmlns="http://www.w3.org/2000/svg">
<rect width="480" height="240" rx="12" fill="#1B1B1B"/>
<path d="M26 149.022C74.2282 149.022 169.488 148.313 200.342 154.928C238.91 163.196 275.903 188 313.684 188C351.465 188 356.974 160.834 399.084 154.928C432.772 150.203 449.065 149.022 453 149.022" stroke="#686868" stroke-width="1.5"/>
<path d="M27 162H107.637C130.452 161.476 179.699 159.8 194.175 157.286C212.269 154.143 234.69 149.036 240.983 147.071C247.277 145.107 255.931 140 271.271 140C286.612 140 304.313 152.179 316.9 152.179C329.488 152.179 351.122 147.071 360.169 147.071C384.3 147.071 396.357 162 453 162" stroke="#E6E6E6" stroke-width="1.5"/>
<path d="M27 174H105.77C140.493 173.783 218.234 169.766 251.414 155.436C292.888 137.524 310.893 139.804 318.288 140.455C325.682 141.106 340.793 142.409 359.119 155.436C377.445 168.463 413.454 173.674 453 174" stroke="#686868" stroke-width="1.5"/>
<path d="M27 184.477C45.9488 183.408 87.2507 178.705 100.868 168.443C117.89 155.615 137.489 133.074 155.466 128.036C173.481 122.989 187.583 127.074 212.955 143.109C238.327 159.143 257.597 174.215 303.524 180.629C340.265 185.76 417.817 185.333 452 184.477" stroke="#E6E6E6" stroke-width="1.5"/>
<path d="M26 197C46.2659 196.301 90.2124 193.055 103.871 185.67C120.944 176.438 142.182 162.59 163.836 163.009C185.49 163.429 206.311 170.143 220.886 175.598C235.46 181.054 275.021 197 347.062 197C369.049 197 413.412 196.021 452 197" stroke="#E6E6E6" stroke-width="1.5"/>
<path d="M26 209.95C33.912 210.235 51.0687 209.437 56.3989 203.967C63.0616 197.129 69.3079 192 78.4692 192C87.6305 192 102.129 209.95 122.61 209.95C130.605 209.95 342.203 208.953 452 209.95" stroke="#E6E6E6" stroke-width="1.5"/>
<path d="M82.0099 46.9329V38H79.9901V46.9329H82.0099Z" fill="#E6E6E6"/>
<path d="M58.9329 67.9901H50V70.0098H58.9329V67.9901Z" fill="#E6E6E6"/>
<path d="M103.067 67.9901H112V70.0098H103.067V67.9901Z" fill="#E6E6E6"/>
<path d="M82.0099 100V91.0671H79.9901V100H82.0099Z" fill="#E6E6E6"/>
<circle cx="81" cy="69" r="4.5" fill="#E6E6E6" stroke="#E6E6E6"/>
<path d="M81 69V41" stroke="#E6E6E6" stroke-width="2"/>
<path d="M186.01 46.9329V38H183.99V46.9329H186.01Z" fill="#E6E6E6"/>
<path d="M162.933 67.9901H154V70.0098H162.933V67.9901Z" fill="#E6E6E6"/>
<path d="M207.067 67.9901H216V70.0098H207.067V67.9901Z" fill="#E6E6E6"/>
<path d="M186.01 100V91.0671H183.99V100H186.01Z" fill="#E6E6E6"/>
<circle cx="185" cy="69" r="5" transform="rotate(-90 185 69)" fill="#E6E6E6"/>
<path d="M185 69L157 69" stroke="#E6E6E6" stroke-width="2"/>
<path d="M289.01 46.9329V38H286.99V46.9329H289.01Z" fill="#E6E6E6"/>
<path d="M265.933 67.9901H257V70.0098H265.933V67.9901Z" fill="#E6E6E6"/>
<path d="M310.067 67.9901H319V70.0098H310.067V67.9901Z" fill="#E6E6E6"/>
<path d="M289.01 100V91.0671H286.99V100H289.01Z" fill="#E6E6E6"/>
<circle cx="287.841" cy="69" r="5" transform="rotate(-45 287.841 69)" fill="#E6E6E6"/>
<path d="M287.841 68.9999L268.042 49.2009" stroke="#E6E6E6" stroke-width="2"/>
<path d="M392.01 46.9329V38H389.99V46.9329H392.01Z" fill="#E6E6E6"/>
<path d="M368.933 67.9901H360V70.0098H368.933V67.9901Z" fill="#E6E6E6"/>
<path d="M413.067 67.9901H422V70.0098H413.067V67.9901Z" fill="#E6E6E6"/>
<path d="M392.01 100V91.0671H389.99V100H392.01Z" fill="#E6E6E6"/>
<ellipse cx="392.663" cy="68.5146" rx="5" ry="5" transform="rotate(51.993 392.663 68.5146)" fill="#E6E6E6"/>
<path d="M392.662 68.5144L414.725 51.2732" stroke="#E6E6E6" stroke-width="2"/>
</svg>
