<svg width="480" height="240" viewBox="0 0 480 240" fill="none" xmlns="http://www.w3.org/2000/svg">
<rect width="480" height="240" rx="12" fill="#1B1B1B"/>
<rect x="281" y="177" width="174" height="41" rx="5" stroke="#686868" stroke-width="2"/>
<path d="M293 207.979L294.003 187.043L301.528 203.894L306.043 192.66L316.578 209V188.574L324.103 203.894L335.641 187.043L340.156 205.936L346.176 188.574L354.203 200.319L386.811 185L405.372 201.851L425.94 187.043L444 200.319" stroke="#E6E6E6" stroke-width="3"/>
<path d="M370 158V158.596V162.231V163C370 164.105 369.105 165 368 165C366.895 165 366 164.105 366 163V158C366 156.895 366.895 156 368 156C369.105 156 370 156.895 370 158Z" stroke="#E6E6E6" stroke-width="2"/>
<rect x="281" y="22" width="174" height="151" rx="5" stroke="#686868" stroke-width="2"/>
<path d="M304.667 154H307V143H304.667L300 144.714L300.729 146.714L304.667 145.429V154Z" fill="#E6E6E6"/>
<rect x="296" y="140" width="18" height="18" rx="3" stroke="#686868" stroke-width="2"/>
<path d="M303 108V105.538H296.338L301.305 102.671C302.354 102.065 303 100.951 303 99.745V99.3846C303 97.5153 301.474 96 299.592 96H295.408C293.526 96 292 97.5153 292 99.3846V100.615H294.479V99.3846C294.479 98.8748 294.895 98.4615 295.408 98.4615H299.127C299.64 98.4615 300.056 98.8748 300.056 99.3846V100.073C300.056 100.408 299.874 100.716 299.58 100.879L292 105.077V108H303Z" fill="#E6E6E6"/>
<rect x="288" y="93" width="18" height="18" rx="3" stroke="#686868" stroke-width="2"/>
<path d="M311 59.1818V57H321V59.1818L318.368 61.9091C319.822 61.9091 321 63.0873 321 64.5407V66C321 67.6569 319.657 69 318 69H314C312.343 69 311 67.6569 311 66V64.0909H313.105V65.8182C313.105 66.3705 313.553 66.8182 314.105 66.8182H317.368C317.921 66.8182 318.368 66.3705 318.368 65.8182V65.0909C318.368 64.5386 317.921 64.0909 317.368 64.0909H314.684V61.9091L317.316 59.1818H311Z" fill="#E6E6E6"/>
<rect x="307" y="54" width="18" height="18" rx="3" stroke="#686868" stroke-width="2"/>
<path fill-rule="evenodd" clip-rule="evenodd" d="M370.25 36L362 41.7V45H370.55V48H373.1V45H374V42.6H373.1V36H370.25ZM370.55 39L365.3 42.6H370.55V39Z" fill="#E6E6E6"/>
<rect x="359" y="33" width="18" height="18" rx="3" stroke="#686868" stroke-width="2"/>
<path d="M414 57H424V59.4304H416.174V62.0127H420.667C422.508 62.0127 424 63.5768 424 65.5063C424 67.4358 422.508 69 420.667 69H414V66.7215H420.739C421.339 66.7215 421.826 66.2115 421.826 65.5823C421.826 64.9531 421.339 64.443 420.739 64.443H414V57Z" fill="#E6E6E6"/>
<rect x="410" y="54" width="18" height="18" rx="3" stroke="#686868" stroke-width="2"/>
<path fill-rule="evenodd" clip-rule="evenodd" d="M442.267 96H434.933C433.313 96 432 97.3431 432 99V105C432 106.657 433.313 108 434.933 108H440.067C441.687 108 443 106.657 443 105V103.8C443 102.143 441.687 100.8 440.067 100.8H434.2V99.3C434.2 98.6373 434.725 98.1 435.373 98.1H442.267V96ZM435.667 103.2C435.019 103.2 434.493 103.737 434.493 104.4C434.493 105.063 435.019 105.6 435.667 105.6H439.48C440.128 105.6 440.653 105.063 440.653 104.4C440.653 103.737 440.128 103.2 439.48 103.2H435.667Z" fill="#E6E6E6"/>
<rect x="429" y="93" width="18" height="18" rx="3" stroke="#686868" stroke-width="2"/>
<path d="M429 145.462V143H440V145.462L432.227 154.231V155H429.88V152.846L436.627 145.462H429Z" fill="#E6E6E6"/>
<rect x="425" y="140" width="18" height="18" rx="3" stroke="#686868" stroke-width="2"/>
<circle cx="368" cy="113" r="38" stroke="#686868" stroke-width="2"/>
<circle cx="368" cy="113" r="19" stroke="#686868" stroke-width="2"/>
<rect x="367" y="56" width="2" height="13" fill="#E6E6E6"/>
<rect width="2" height="13" transform="matrix(0.987179 0.159617 -0.159108 0.987261 376 57)" fill="#686868"/>
<rect width="2" height="13" transform="matrix(0.941922 0.33583 -0.334855 0.94227 385 59)" fill="#686868"/>
<rect width="2" height="13" transform="matrix(0.872728 0.488207 -0.48699 0.873408 394 63)" fill="#686868"/>
<rect width="2" height="13" transform="matrix(0.648291 0.761393 -0.760343 0.649521 409 74)" fill="#686868"/>
<rect width="2" height="13" transform="matrix(0.496235 0.868188 -0.867486 0.497461 415 82)" fill="#686868"/>
<rect width="2" height="13" transform="matrix(0.3454 0.938455 -0.938088 0.346398 420 90)" fill="#686868"/>
<rect width="2" height="13" transform="matrix(0.144711 0.989474 -0.989406 0.145176 423 100)" fill="#686868"/>
<rect x="424" y="109" width="2" height="13" transform="rotate(90 424 109)" fill="#E6E6E6"/>
<rect width="2" height="13" transform="matrix(-0.176001 0.98439 -0.98429 -0.176561 423 119)" fill="#686868"/>
<rect width="2" height="13" transform="matrix(-0.352392 0.935853 -0.935471 -0.353404 422 128)" fill="#686868"/>
<rect width="2" height="13" transform="matrix(-0.530661 0.847584 -0.846801 -0.53191 418 137)" fill="#686868"/>
<rect width="2" height="13" transform="matrix(0.76892 0.639345 -0.638106 0.769948 403 68)" fill="#686868"/>
<rect width="2" height="13" transform="matrix(-0.987172 0.15966 0.159065 0.987268 360 57)" fill="#686868"/>
<rect width="2" height="13" transform="matrix(-0.941893 0.335914 0.334773 0.942299 351 59)" fill="#686868"/>
<rect width="2" height="13" transform="matrix(-0.87267 0.488311 0.486886 0.873465 342 63)" fill="#686868"/>
<rect width="2" height="13" transform="matrix(-0.648186 0.761482 0.760254 0.649626 327 74)" fill="#686868"/>
<rect width="2" height="13" transform="matrix(-0.496131 0.868248 0.867426 0.497565 321 82)" fill="#686868"/>
<rect width="2" height="13" transform="matrix(-0.345315 0.938487 0.938056 0.346483 316 90)" fill="#686868"/>
<rect width="2" height="13" transform="matrix(-0.144671 0.98948 0.9894 0.145215 313 100)" fill="#686868"/>
<rect width="2" height="13" transform="matrix(0 1 1 0 312 109)" fill="#E6E6E6"/>
<rect width="2" height="13" transform="matrix(0.175954 0.984398 0.984281 -0.176608 313 119)" fill="#686868"/>
<rect width="2" height="13" transform="matrix(0.352306 0.935885 0.935438 -0.35349 314 128)" fill="#686868"/>
<rect width="2" height="13" transform="matrix(0.530554 0.847651 0.846734 -0.532016 318 137)" fill="#686868"/>
<rect width="2" height="5" transform="matrix(0.688133 0.725585 0.724266 -0.689521 331 145)" fill="#686868"/>
<rect width="2" height="5" transform="matrix(0.807764 0.589506 0.588031 -0.808839 337 151)" fill="#686868"/>
<rect width="2" height="4" transform="matrix(0.874105 0.485737 0.484315 -0.874894 343 155)" fill="#686868"/>
<rect width="2" height="2" transform="matrix(0.963619 0.26728 0.26633 -0.963882 352 157)" fill="#686868"/>
<rect width="2" height="13" transform="matrix(-0.764497 0.644627 0.643182 0.765713 333 68)" fill="#686868"/>
<path fill-rule="evenodd" clip-rule="evenodd" d="M310.502 28.9697C309.638 28.9697 308.937 29.6478 308.937 30.4843V34.5157C308.937 35.3522 309.638 36.0303 310.502 36.0303C311.367 36.0303 312.068 35.3522 312.068 34.5157V30.4843C312.068 29.6478 311.367 28.9697 310.502 28.9697ZM306.902 30.4843C306.902 28.56 308.514 27 310.502 27C312.172 27 313.577 28.1001 313.984 29.5922V27H317.216C318.902 27 320.269 28.3228 320.269 29.9545V35.0455C320.269 36.6772 318.902 38 317.216 38H313.984V35.4078C313.577 36.8999 312.172 38 310.502 38C308.514 38 306.902 36.44 306.902 34.5157V30.4843ZM316.019 28.9697V36.0303H317.216C317.778 36.0303 318.233 35.5894 318.233 35.0455V29.9545C318.233 29.4106 317.778 28.9697 317.216 28.9697H316.019ZM320.733 27H326V28.9697H322.768V31.5152H326V33.4848H322.768V36.0303H326V38H320.733V27ZM299 27L300.83 27L302.703 31.0393L304.498 27H306.285V37.7488H304.249V32.5036L303.671 33.7267H301.8L301.035 32.2211V37.7488H299V27Z" fill="#E6E6E6"/>
<path fill-rule="evenodd" clip-rule="evenodd" d="M414 27H420.712V28.9831H416.024V31.7793H419.641V33.7624H416.024V37.5502H414V27ZM430.832 28.9831H427.942V27H435.708V28.9831H432.856V37.8126H430.832V28.9831ZM435.882 27H441.752V28.9831H437.906V31.7793H441.332V33.7624H437.906V35.9589H441.752V37.9419H435.882V27ZM442.424 27H445.378C447.379 27 449 28.5888 449 30.5486C449 31.9629 448.143 33.2422 446.818 33.8046L446.534 33.9252L448.426 35.334V38H446.402V36.3177L444.448 34.862V37.8126H442.424V27ZM444.448 32.65L446.014 31.985C446.598 31.7369 446.976 31.1725 446.976 30.5486C446.976 29.684 446.261 28.9831 445.378 28.9831H444.448V32.65ZM420.962 37.8126V27.0169H422.986V37.8126H420.962ZM424.099 27.0169H426.123V35.9589H429.396V37.9419H424.099V27.0169Z" fill="#E6E6E6"/>
<rect x="367" y="78" width="2" height="13" fill="#E6E6E6"/>
<rect x="367" y="96" width="2" height="13" fill="#E6E6E6"/>
<circle cx="406.5" cy="32.5" r="3.5" fill="#E6E6E6"/>
<circle cx="290.5" cy="32.5" r="3.5" fill="#E6E6E6"/>
<path d="M183 215L183 125" stroke="#686868" stroke-width="2"/>
<path d="M110 215L110 125" stroke="#686868" stroke-width="2"/>
<rect x="25" y="122" width="252" height="96" rx="5" stroke="#686868" stroke-width="2"/>
<path fill-rule="evenodd" clip-rule="evenodd" d="M191 205.716C191 204.216 192.202 203 193.686 203H193.981C195.628 203 196.963 204.35 196.963 206.015V206.623H194.99V206.015C194.99 205.451 194.538 204.995 193.981 204.995H193.686C193.292 204.995 192.973 205.317 192.973 205.716C192.973 205.954 193.089 206.177 193.284 206.311L195.791 208.042C196.524 208.547 196.963 209.387 196.963 210.284C196.963 211.784 195.76 213 194.277 213H193.981C192.335 213 191 211.65 191 209.985V209.377H192.973V209.985C192.973 210.549 193.424 211.005 193.981 211.005H194.277C194.671 211.005 194.99 210.683 194.99 210.284C194.99 210.046 194.874 209.823 194.679 209.689L192.172 207.958C191.439 207.453 191 206.613 191 205.716ZM203.793 205.983C203.793 204.335 205.114 203 206.743 203C208.372 203 209.693 204.335 209.693 205.983V210.017C209.693 211.665 208.372 213 206.743 213C205.114 213 203.793 211.665 203.793 210.017V205.983ZM206.743 204.995C206.204 204.995 205.766 205.437 205.766 205.983V210.017C205.766 210.563 206.204 211.005 206.743 211.005C207.283 211.005 207.72 210.563 207.72 210.017V205.983C207.72 205.437 207.283 204.995 206.743 204.995ZM210.444 203H212.982C214.663 203 216.026 204.378 216.026 206.079C216.026 207.316 215.305 208.383 214.264 208.872L215.144 209.465C215.696 209.837 216.026 210.459 216.026 211.124V213H214.054V211.127L212.416 210.024V213H210.444V203ZM212.416 207.163V204.995H212.982C213.574 204.995 214.054 205.48 214.054 206.079C214.054 206.677 213.574 207.163 212.982 207.163H212.416ZM218.805 204.995H216.583V203H223V204.995H220.778V213H218.805V204.995ZM197.523 203.072H199.496V206.811H201.133V203.072H203.106V213H201.133V208.805H199.496V213H197.523V203.072Z" fill="#686868"/>
<path d="M260.342 202C258.739 202 257.439 203.341 257.439 204.996V209.797L255.137 202.491H253.122L251.038 210.151L250.869 210.717V212.781H252.868V211.041L253.122 210.153H255.421L255.73 211.067V212.781H257.729V211.31C258.199 212.31 259.192 213 260.342 213C261.945 213 263.245 211.659 263.245 210.004V208.733H261.246V210.004C261.246 210.519 260.841 210.937 260.342 210.937C259.843 210.937 259.438 210.519 259.438 210.004V204.996C259.438 204.481 259.843 204.063 260.342 204.063C260.841 204.063 261.246 204.481 261.246 204.996V206.576H263.245V204.996C263.245 203.341 261.945 202 260.342 202Z" fill="#686868"/>
<path d="M265.82 202.3H263.821V213H265.82V210.003L268.001 212.27V213H270V211.419L266.292 207.565L270 204.318V202.3H268.001V203.363L265.82 205.272V202.3Z" fill="#686868"/>
<path d="M241.813 204.555H239.56V202.491H251.513V204.555H249.261V212.836H247.262V204.555H243.812V212.836H241.813V204.555Z" fill="#686868"/>
<path d="M240.86 212.781H238.861V211.067L238.552 210.153H236.253L235.999 211.041V212.781H234V210.717L234.169 210.151L236.253 202.491H238.268L240.86 210.717V212.781Z" fill="#686868"/>
<path fill-rule="evenodd" clip-rule="evenodd" d="M212.327 129H214.361L216.977 136.624V138.536H214.959V136.948L214.647 136.101H212.327L212.07 136.924V138.536H210.052V137.128C209.642 138.219 208.543 139 207.251 139C205.609 139 204.278 137.739 204.278 136.184V131.816C204.278 130.261 205.609 129 207.251 129C208.892 129 210.223 130.261 210.223 131.816V132.738H208.204V131.816C208.204 131.317 207.777 130.912 207.251 130.912C206.724 130.912 206.297 131.317 206.297 131.816V136.184C206.297 136.683 206.724 137.088 207.251 137.088C207.777 137.088 208.204 136.683 208.204 136.184V135.145H210.223V136.099L212.327 129ZM191 129.375H194.032C195.704 129.375 197.06 130.659 197.06 132.243V136.131C197.06 137.716 195.704 139 194.032 139H191V129.375ZM193.018 131.287V137.088H194.032C194.589 137.088 195.041 136.659 195.041 136.131V132.243C195.041 131.715 194.589 131.287 194.032 131.287H193.018ZM197.986 129.375H202.863V131.287H200.004V133.231H202.409V135.144H200.004V137.088H203.152V139H197.986V129.375ZM215.825 129H217.843V130.71L218.946 132.363L219.982 130.723V129H222V131.252L219.979 134.452V138.536H217.961V134.464L215.825 131.264V129Z" fill="#686868"/>
<path fill-rule="evenodd" clip-rule="evenodd" d="M245.257 131.181C245.257 129.424 246.628 128 248.318 128C250.008 128 251.378 129.424 251.378 131.181V135.819C251.378 137.576 250.008 139 248.318 139C246.628 139 245.257 137.576 245.257 135.819V131.181ZM248.318 130.057C247.72 130.057 247.236 130.56 247.236 131.181V135.819C247.236 136.44 247.72 136.943 248.318 136.943C248.915 136.943 249.4 136.44 249.4 135.819V131.181C249.4 130.56 248.915 130.057 248.318 130.057ZM259.198 131.016C259.198 129.35 260.497 128 262.099 128C263.701 128 265 129.35 265 131.016V132.092H263.021V131.016C263.021 130.486 262.608 130.057 262.099 130.057C261.589 130.057 261.176 130.486 261.176 131.016V136.021C261.176 136.53 261.589 136.943 262.099 136.943C262.608 136.943 263.021 136.53 263.021 136.021V135.439H262.258V133.382H265V136.943C265 138.079 264.114 139 263.021 139H261.176C260.084 139 259.198 138.079 259.198 136.943V131.016ZM252.666 128.225H254.472L256.25 133.147V128.225H258.332L258.184 138.838H256.25L254.644 134.532V138.838H252.666V128.225ZM240 128.333H241.979L241.979 136.943H244.733V139H240L240 128.333Z" fill="#686868"/>
<path d="M229 152V135H235" stroke="#686868" stroke-width="2"/>
<path d="M243 189L247 194V200" stroke="#686868" stroke-width="2"/>
<path d="M215 189L211 194V200" stroke="#686868" stroke-width="2"/>
<circle cx="199" cy="156" r="3" fill="#686868"/>
<path d="M229 171L229 160" stroke="#686868" stroke-width="2"/>
<circle cx="229" cy="173" r="15.5" stroke="#686868" stroke-width="3"/>
<circle cx="199" cy="164" r="3" fill="#686868"/>
<circle cx="199" cy="172" r="3" fill="#686868"/>
<circle cx="199" cy="180" r="3" fill="#686868"/>
<path d="M154 198L154 135" stroke="#686868" stroke-width="2"/>
<rect x="141" y="136" width="9" height="2" fill="#E6E6E6"/>
<rect x="141" y="143" width="9" height="2" fill="#686868"/>
<rect x="141" y="150" width="9" height="2" fill="#686868"/>
<rect x="141" y="157" width="9" height="2" fill="#686868"/>
<rect x="141" y="164" width="9" height="2" fill="#686868"/>
<rect x="141" y="171" width="9" height="2" fill="#E6E6E6"/>
<rect x="141" y="178" width="9" height="2" fill="#686868"/>
<rect x="141" y="185" width="9" height="2" fill="#686868"/>
<rect x="141" y="192" width="9" height="2" fill="#686868"/>
<rect x="141" y="199" width="9" height="2" fill="#686868"/>
<rect x="141" y="206" width="9" height="2" fill="#686868"/>
<rect x="158" y="136" width="9" height="2" fill="#E6E6E6"/>
<rect x="158" y="143" width="9" height="2" fill="#686868"/>
<rect x="158" y="150" width="9" height="2" fill="#686868"/>
<rect x="158" y="157" width="9" height="2" fill="#686868"/>
<rect x="158" y="164" width="9" height="2" fill="#686868"/>
<rect x="158" y="171" width="9" height="2" fill="#E6E6E6"/>
<rect x="158" y="178" width="9" height="2" fill="#686868"/>
<rect x="158" y="185" width="9" height="2" fill="#686868"/>
<rect x="158" y="192" width="9" height="2" fill="#686868"/>
<rect x="158" y="199" width="9" height="2" fill="#686868"/>
<rect x="158" y="206" width="9" height="2" fill="#686868"/>
<g clip-path="url(#clip0_155_4117)">
<rect x="144" y="201" width="19" height="10" fill="#ebebeb"/>
<rect x="145" y="202" width="17" height="8" stroke="#686868" stroke-width="2"/>
<path d="M148 206H159" stroke="#E6E6E6" stroke-width="2"/>
</g>
<rect x="143" y="200" width="21" height="12" stroke="#ebebeb" stroke-width="2"/>
<path d="M121 141V134H134V141" stroke="#686868" stroke-width="2"/>
<path d="M120 175V168H126.5V174H132V168" stroke="#686868" stroke-width="2"/>
<path d="M120 207.5V206.889C120 205.293 121.293 204 122.889 204H123.5C125.157 204 126.5 205.343 126.5 207V207.25C126.5 208.769 127.731 210 129.25 210V210C130.769 210 132 208.769 132 207.25V205" stroke="#686868" stroke-width="2"/>
<path d="M30 133.226H33.1034V131.677C33.1034 129.967 34.4929 128.581 36.2069 128.581H38.7931C40.5071 128.581 41.8966 129.967 41.8966 131.677V132.228C41.8966 133.461 41.1636 134.576 40.0305 135.068L30 139.419V142H45V139.419H36.2069L41.797 137.123C43.7351 136.326 45 134.441 45 132.35V132.194C45 128.773 42.2211 126 38.7931 126H36.2069C32.7789 126 30 128.773 30 132.194V133.226Z" fill="#686868"/>
<path d="M90 142H92.087V132.5L95.2174 137H97.3043L99.913 132.5V142H102V127H99.3913L96.2609 133.5L92.087 127H90V142Z" fill="#686868"/>
<path d="M67 172L67 161" stroke="#686868" stroke-width="2"/>
<circle cx="67" cy="174" r="15.5" stroke="#686868" stroke-width="3"/>
<rect x="66" y="145" width="2" height="9" fill="#686868"/>
<rect width="2" height="8" transform="matrix(0.936375 0.351002 -0.355418 0.934708 76 146)" fill="#686868"/>
<rect width="2" height="8" transform="matrix(-0.936375 0.351002 0.355418 0.934708 58 146)" fill="#686868"/>
<rect width="2" height="8" transform="matrix(0.503527 0.86398 -0.867081 0.498167 92 159)" fill="#686868"/>
<rect width="2" height="8" transform="matrix(-0.503527 0.86398 0.867081 0.498167 42 159)" fill="#686868"/>
<rect width="2" height="8" transform="matrix(0.132319 0.991207 -0.991452 0.130475 96 169)" fill="#686868"/>
<rect width="2" height="8" transform="matrix(-0.132319 0.991207 0.991452 0.130475 38 169)" fill="#686868"/>
<rect width="2" height="8" transform="matrix(-0.159966 0.987123 -0.987478 -0.157754 96 178)" fill="#686868"/>
<rect width="2" height="8" transform="matrix(0.159966 0.987123 0.987478 -0.157754 38 178)" fill="#686868"/>
<rect width="2" height="8" transform="matrix(-0.5569 0.83058 -0.834231 -0.551415 93 188)" fill="#686868"/>
<rect width="2" height="8" transform="matrix(0.5569 0.83058 0.834231 -0.551415 41 188)" fill="#686868"/>
<rect width="2" height="8" transform="matrix(-0.750726 0.660614 -0.665921 -0.746022 87 196)" fill="#686868"/>
<rect width="2" height="8" transform="matrix(0.750726 0.660614 0.665921 -0.746022 47 196)" fill="#686868"/>
<rect width="2" height="8" transform="matrix(0.767573 0.640962 -0.646347 0.763043 85 151)" fill="#686868"/>
<rect width="2" height="8" transform="matrix(-0.767573 0.640962 0.646347 0.763043 49 151)" fill="#686868"/>
<rect x="95" y="203" width="2" height="11" fill="#686868"/>
<path fill-rule="evenodd" clip-rule="evenodd" d="M37.5 205C36.6716 205 36 205.672 36 206.5V210.5C36 211.328 36.6716 212 37.5 212C38.3284 212 39 211.328 39 210.5V206.5C39 205.672 38.3284 205 37.5 205ZM34 206.5C34 204.567 35.567 203 37.5 203C39.433 203 41 204.567 41 206.5V210.5C41 212.433 39.433 214 37.5 214C35.567 214 34 212.433 34 210.5V206.5Z" fill="#686868"/>
<path d="M229 52V35H235" stroke="#686868" stroke-width="2"/>
<path d="M183 115L183 25" stroke="#686868" stroke-width="2"/>
<path d="M97 68L38 68" stroke="#686868" stroke-width="2"/>
<path d="M36 44L36 29" stroke="#686868" stroke-width="2"/>
<path d="M39 95H50.5L68 73L86 95H97" stroke="#686868" stroke-width="2"/>
<path d="M110 115L110 25" stroke="#686868" stroke-width="2"/>
<path d="M243 89L247 94V100" stroke="#686868" stroke-width="2"/>
<path d="M215 89L211 94V100" stroke="#686868" stroke-width="2"/>
<rect x="25" y="22" width="252" height="96" rx="5" stroke="#686868" stroke-width="2"/>
<circle cx="199" cy="56" r="3" fill="#686868"/>
<path d="M229 71L229 60" stroke="#686868" stroke-width="2"/>
<circle cx="229" cy="73" r="15.5" stroke="#686868" stroke-width="3"/>
<circle cx="199" cy="64" r="3" fill="#686868"/>
<circle cx="199" cy="72" r="3" fill="#686868"/>
<circle cx="199" cy="80" r="3" fill="#686868"/>
<path d="M154 100L154 37" stroke="#686868" stroke-width="2"/>
<rect x="141" y="38" width="9" height="2" fill="#E6E6E6"/>
<rect x="141" y="45" width="9" height="2" fill="#686868"/>
<rect x="141" y="52" width="9" height="2" fill="#686868"/>
<rect x="141" y="59" width="9" height="2" fill="#686868"/>
<rect x="141" y="66" width="9" height="2" fill="#686868"/>
<rect x="141" y="73" width="9" height="2" fill="#E6E6E6"/>
<rect x="141" y="80" width="9" height="2" fill="#686868"/>
<rect x="141" y="87" width="9" height="2" fill="#686868"/>
<rect x="141" y="94" width="9" height="2" fill="#686868"/>
<rect x="141" y="101" width="9" height="2" fill="#686868"/>
<rect x="141" y="108" width="9" height="2" fill="#686868"/>
<rect x="158" y="38" width="9" height="2" fill="#E6E6E6"/>
<rect x="158" y="45" width="9" height="2" fill="#686868"/>
<rect x="158" y="52" width="9" height="2" fill="#686868"/>
<rect x="158" y="59" width="9" height="2" fill="#686868"/>
<rect x="158" y="66" width="9" height="2" fill="#686868"/>
<rect x="158" y="73" width="9" height="2" fill="#E6E6E6"/>
<rect x="158" y="80" width="9" height="2" fill="#686868"/>
<rect x="158" y="87" width="9" height="2" fill="#686868"/>
<rect x="158" y="94" width="9" height="2" fill="#686868"/>
<rect x="158" y="101" width="9" height="2" fill="#686868"/>
<rect x="158" y="108" width="9" height="2" fill="#686868"/>
<g clip-path="url(#clip1_155_4117)">
<rect x="144" y="103" width="19" height="10" fill="#ebebeb"/>
<rect x="145" y="104" width="17" height="8" stroke="#686868" stroke-width="2"/>
<path d="M148 108H159" stroke="#E6E6E6" stroke-width="2"/>
</g>
<rect x="143" y="102" width="21" height="12" stroke="#ebebeb" stroke-width="2"/>
<path d="M121 42V35L134 42" stroke="#686868" stroke-width="2"/>
<path d="M120 76V69H126.5V75H132V69" stroke="#686868" stroke-width="2"/>
<path d="M120 109.5V108.889C120 107.293 121.293 106 122.889 106H123.5C125.157 106 126.5 107.343 126.5 109V109.25C126.5 110.769 127.731 112 129.25 112V112C130.769 112 132 110.769 132 109.25V107" stroke="#686868" stroke-width="2"/>
<path fill-rule="evenodd" clip-rule="evenodd" d="M97.297 29C94.6997 29 92.5941 31.1952 92.5941 33.9032V40.0968C92.5941 42.8048 94.6997 45 97.297 45C99.8944 45 102 42.8048 102 40.0968V33.9032C102 31.1952 99.8944 29 97.297 29ZM95.0693 33.9032C95.0693 32.6205 96.0667 31.5806 97.297 31.5806C98.5274 31.5806 99.5248 32.6205 99.5248 33.9032V40.0968C99.5248 41.3795 98.5274 42.4194 97.297 42.4194C96.0667 42.4194 95.0693 41.3795 95.0693 40.0968V33.9032Z" fill="#686868"/>
<path d="M87.6436 29.2581V44.7419H90.1188V29.2581H87.6436Z" fill="#686868"/>
<path d="M79.9703 36.4839V33.3871H81.9505V36.4839H84.9208V38.5484H81.9505V41.6452H79.9703V38.5484H77V36.4839H79.9703Z" fill="#686868"/>
<path fill-rule="evenodd" clip-rule="evenodd" d="M191 105.716C191 104.216 192.202 103 193.686 103H193.981C195.628 103 196.963 104.35 196.963 106.015V106.623H194.99V106.015C194.99 105.451 194.538 104.995 193.981 104.995H193.686C193.292 104.995 192.973 105.317 192.973 105.716C192.973 105.954 193.089 106.177 193.284 106.311L195.791 108.042C196.524 108.547 196.963 109.387 196.963 110.284C196.963 111.784 195.76 113 194.277 113H193.981C192.335 113 191 111.65 191 109.985V109.377H192.973V109.985C192.973 110.549 193.424 111.005 193.981 111.005H194.277C194.671 111.005 194.99 110.683 194.99 110.284C194.99 110.046 194.874 109.823 194.679 109.689L192.172 107.958C191.439 107.453 191 106.613 191 105.716ZM203.793 105.983C203.793 104.335 205.114 103 206.743 103C208.372 103 209.693 104.335 209.693 105.983V110.017C209.693 111.665 208.372 113 206.743 113C205.114 113 203.793 111.665 203.793 110.017V105.983ZM206.743 104.995C206.204 104.995 205.766 105.437 205.766 105.983V110.017C205.766 110.563 206.204 111.005 206.743 111.005C207.283 111.005 207.72 110.563 207.72 110.017V105.983C207.72 105.437 207.283 104.995 206.743 104.995ZM210.444 103H212.982C214.663 103 216.026 104.378 216.026 106.079C216.026 107.316 215.305 108.383 214.264 108.872L215.144 109.465C215.696 109.837 216.026 110.459 216.026 111.124V113H214.054V111.127L212.416 110.024V113H210.444V103ZM212.416 107.163V104.995H212.982C213.574 104.995 214.054 105.48 214.054 106.079C214.054 106.677 213.574 107.163 212.982 107.163H212.416ZM218.805 104.995H216.583V103H223V104.995H220.778V113H218.805V104.995ZM197.523 103.072H199.496V106.811H201.133V103.072H203.106V113H201.133V108.805H199.496V113H197.523V103.072Z" fill="#E6E6E6"/>
<path fill-rule="evenodd" clip-rule="evenodd" d="M212.327 29H214.361L216.977 36.6238V38.5361H214.959V36.9475L214.647 36.1009H212.327L212.07 36.924V38.5361H210.052V37.1276C209.642 38.2187 208.543 39 207.251 39C205.609 39 204.278 37.7392 204.278 36.184V31.816C204.278 30.2608 205.609 29 207.251 29C208.892 29 210.223 30.2608 210.223 31.816V32.7378H208.204V31.816C208.204 31.317 207.777 30.9124 207.251 30.9124C206.724 30.9124 206.297 31.317 206.297 31.816V36.184C206.297 36.683 206.724 37.0876 207.251 37.0876C207.777 37.0876 208.204 36.683 208.204 36.184V35.1446H210.223V36.0991L212.327 29ZM191 29.3748H194.032C195.704 29.3748 197.06 30.6591 197.06 32.2434V36.1314C197.06 37.7157 195.704 39 194.032 39H191V29.3748ZM193.018 31.2872V37.0876H194.032C194.589 37.0876 195.041 36.6595 195.041 36.1314V32.2434C195.041 31.7153 194.589 31.2872 194.032 31.2872H193.018ZM197.986 29.3748H202.863V31.2872H200.004V33.2312H202.409V35.1436H200.004V37.0876H203.152V39H197.986V29.3748ZM215.825 29H217.843V30.7104L218.946 32.3628L219.982 30.7232V29H222V31.2516L219.979 34.4516V38.5361H217.961V34.4644L215.825 31.2644V29Z" fill="#686868"/>
<path d="M260.342 102C258.739 102 257.439 103.341 257.439 104.996V109.797L255.137 102.491H253.122L251.038 110.151L250.869 110.717V112.781H252.868V111.041L253.122 110.153H255.421L255.73 111.067V112.781H257.729V111.31C258.199 112.31 259.192 113 260.342 113C261.945 113 263.245 111.659 263.245 110.004V108.733H261.246V110.004C261.246 110.519 260.841 110.937 260.342 110.937C259.843 110.937 259.438 110.519 259.438 110.004V104.996C259.438 104.481 259.843 104.063 260.342 104.063C260.841 104.063 261.246 104.481 261.246 104.996V106.576H263.245V104.996C263.245 103.341 261.945 102 260.342 102Z" fill="#E6E6E6"/>
<path d="M265.82 102.3H263.821V113H265.82V110.003L268.001 112.27V113H270V111.419L266.292 107.565L270 104.318V102.3H268.001V103.363L265.82 105.272V102.3Z" fill="#E6E6E6"/>
<path d="M241.813 104.555H239.56V102.491H251.513V104.555H249.261V112.836H247.262V104.555H243.812V112.836H241.813V104.555Z" fill="#E6E6E6"/>
<path d="M240.86 112.781H238.861V111.067L238.552 110.153H236.253L235.999 111.041V112.781H234V110.717L234.169 110.151L236.253 102.491H238.268L240.86 110.717V112.781Z" fill="#E6E6E6"/>
<path fill-rule="evenodd" clip-rule="evenodd" d="M244.257 32.1814C244.257 30.4244 245.628 29 247.318 29C249.008 29 250.378 30.4244 250.378 32.1814V36.8186C250.378 38.5756 249.008 40 247.318 40C245.628 40 244.257 38.5756 244.257 36.8186V32.1814ZM247.318 31.0569C246.72 31.0569 246.236 31.5603 246.236 32.1814V36.8186C246.236 37.4397 246.72 37.9431 247.318 37.9431C247.915 37.9431 248.4 37.4397 248.4 36.8186V32.1814C248.4 31.5603 247.915 31.0569 247.318 31.0569ZM258.198 32.0158C258.198 30.3502 259.497 29 261.099 29C262.701 29 264 30.3502 264 32.0158V33.0923H262.021V32.0158C262.021 31.4862 261.608 31.0569 261.099 31.0569C260.589 31.0569 260.176 31.4862 260.176 32.0158V37.0207C260.176 37.5301 260.589 37.9431 261.099 37.9431C261.608 37.9431 262.021 37.5301 262.021 37.0207V36.4393H261.258V34.3824H264V37.9431C264 39.0791 263.114 40 262.021 40H260.176C259.084 40 258.198 39.0791 258.198 37.9431V32.0158ZM251.666 29.2254H253.472L255.25 34.1473V29.2254H257.332L257.184 39.8385H255.25L253.644 35.532V39.8385H251.666V29.2254ZM239 29.3326H240.979L240.979 37.9431H243.733V40H239L239 29.3326Z" fill="#E6E6E6"/>
<defs>
<clipPath id="clip0_155_4117">
<rect x="144" y="201" width="19" height="10" fill="white"/>
</clipPath>
<clipPath id="clip1_155_4117">
<rect x="144" y="103" width="19" height="10" fill="white"/>
</clipPath>
</defs>
</svg>
