<svg width="480" height="240" viewBox="0 0 480 240" fill="none" xmlns="http://www.w3.org/2000/svg">
<rect width="480" height="240" rx="12" fill="#ebebeb"/>
<rect x="26" y="89" width="428" height="2" fill="#B7B7B7"/>
<rect x="26" y="104" width="428" height="2" fill="#B7B7B7"/>
<rect x="26" y="120" width="428" height="2" fill="#B7B7B7"/>
<rect x="26" y="135" width="428" height="2" fill="#B7B7B7"/>
<rect x="26" y="150" width="428" height="2" fill="#B7B7B7"/>
<path d="M47 126H45V139.365C44.285 138.864 43.4251 138.571 42.5 138.571C40.0147 138.571 38 140.682 38 143.286C38 145.889 40.0147 148 42.5 148C44.9853 148 47 145.889 47 143.286C47 143.018 46.9787 142.755 46.9378 142.5H47V126Z" fill="#4D4D4D"/>
<path d="M168 126H166V139.365C165.285 138.864 164.425 138.571 163.5 138.571C161.015 138.571 159 140.682 159 143.286C159 145.889 161.015 148 163.5 148C165.985 148 168 145.889 168 143.286C168 143.018 167.979 142.755 167.938 142.5H168V126Z" fill="#4D4D4D"/>
<path d="M311 126H309V139.365C308.285 138.864 307.425 138.571 306.5 138.571C304.015 138.571 302 140.682 302 143.286C302 145.889 304.015 148 306.5 148C308.985 148 311 145.889 311 143.286C311 143.018 310.979 142.755 310.938 142.5H311V126Z" fill="#4D4D4D"/>
<path d="M340 126H338V139.365C337.285 138.864 336.425 138.571 335.5 138.571C333.015 138.571 331 140.682 331 143.286C331 145.889 333.015 148 335.5 148C337.985 148 340 145.889 340 143.286C340 143.018 339.979 142.755 339.938 142.5H340V126Z" fill="#4D4D4D"/>
<path d="M76 99H74V112.365C73.285 111.864 72.4251 111.571 71.5 111.571C69.0147 111.571 67 113.682 67 116.286C67 118.889 69.0147 121 71.5 121C73.9853 121 76 118.889 76 116.286C76 116.018 75.9787 115.755 75.9378 115.5H76V99Z" fill="#4D4D4D"/>
<path d="M197 99H195V112.365C194.285 111.864 193.425 111.571 192.5 111.571C190.015 111.571 188 113.682 188 116.286C188 118.889 190.015 121 192.5 121C194.985 121 197 118.889 197 116.286C197 116.018 196.979 115.755 196.938 115.5H197V99Z" fill="#4D4D4D"/>
<path d="M368 99H366V112.365C365.285 111.864 364.425 111.571 363.5 111.571C361.015 111.571 359 113.682 359 116.286C359 118.889 361.015 121 363.5 121C365.985 121 368 118.889 368 116.286C368 116.018 367.979 115.755 367.938 115.5H368V99Z" fill="#4D4D4D"/>
<path d="M397 99H395V112.365C394.285 111.864 393.425 111.571 392.5 111.571C390.015 111.571 388 113.682 388 116.286C388 118.889 390.015 121 392.5 121C394.985 121 397 118.889 397 116.286C397 116.018 396.979 115.755 396.938 115.5H397V99Z" fill="#4D4D4D"/>
<path d="M105 92H103V105.365C102.285 104.864 101.425 104.571 100.5 104.571C98.0147 104.571 96 106.682 96 109.286C96 111.889 98.0147 114 100.5 114C102.985 114 105 111.889 105 109.286C105 109.018 104.979 108.755 104.938 108.5H105V92Z" fill="#4D4D4D"/>
<path d="M254 92H252V105.365C251.285 104.864 250.425 104.571 249.5 104.571C247.015 104.571 245 106.682 245 109.286C245 111.889 247.015 114 249.5 114C251.985 114 254 111.889 254 109.286C254 109.018 253.979 108.755 253.938 108.5H254V92Z" fill="#4D4D4D"/>
<path d="M283 92H281V105.365C280.285 104.864 279.425 104.571 278.5 104.571C276.015 104.571 274 106.682 274 109.286C274 111.889 276.015 114 278.5 114C280.985 114 283 111.889 283 109.286C283 109.018 282.979 108.755 282.938 108.5H283V92Z" fill="#4D4D4D"/>
<path d="M425 92H423V105.365C422.285 104.864 421.425 104.571 420.5 104.571C418.015 104.571 416 106.682 416 109.286C416 111.889 418.015 114 420.5 114C422.985 114 425 111.889 425 109.286C425 109.018 424.979 108.755 424.938 108.5H425V92Z" fill="#4D4D4D"/>
<path fill-rule="evenodd" clip-rule="evenodd" d="M83.7997 103H81.6035V105.604H79V107.8H81.6035V111.2H79V113.396H81.6035V116H83.7997V113.396H87.2003V116H89.3965V113.396H92V111.2H89.3965V107.8H92V105.604H89.3965V103H87.2003V105.604H83.7997V103ZM87.2003 111.2V107.8H83.7997V111.2H87.2003Z" fill="#4D4D4D"/>
<path fill-rule="evenodd" clip-rule="evenodd" d="M232.8 103H230.604V105.604H228V107.8H230.604V111.2H228V113.396H230.604V116H232.8V113.396H236.2V116H238.396V113.396H241V111.2H238.396V107.8H241V105.604H238.396V103H236.2V105.604H232.8V103ZM236.2 111.2V107.8H232.8V111.2H236.2Z" fill="#4D4D4D"/>
<path fill-rule="evenodd" clip-rule="evenodd" d="M261.8 103H259.604V105.604H257V107.8H259.604V111.2H257V113.396H259.604V116H261.8V113.396H265.2V116H267.396V113.396H270V111.2H267.396V107.8H270V105.604H267.396V103H265.2V105.604H261.8V103ZM265.2 111.2V107.8H261.8V111.2H265.2Z" fill="#4D4D4D"/>
<path fill-rule="evenodd" clip-rule="evenodd" d="M404.8 103H402.604V105.604H400V107.8H402.604V111.2H400V113.396H402.604V116H404.8V113.396H408.2V116H410.396V113.396H413V111.2H410.396V107.8H413V105.604H410.396V103H408.2V105.604H404.8V103ZM408.2 111.2V107.8H404.8V111.2H408.2Z" fill="#4D4D4D"/>
<path fill-rule="evenodd" clip-rule="evenodd" d="M60 59.8192V37H61.99V59.8192H60ZM80.3086 37C80.3086 38.6623 79.9123 40.2988 79.1549 41.7643L71.5788 56.4232C71.0389 57.4678 70.7564 58.6343 70.7564 59.8192H68.7665C68.7665 58.2949 69.1299 56.7942 69.8244 55.4503L77.4005 40.7914C78.0032 39.6252 78.3186 38.3228 78.3186 37H80.3086ZM85.708 59.8192V37H87.698V59.8192H85.708ZM92.7369 43.5674C92.7369 40.0596 95.4821 37.2161 98.8685 37.2161C102.255 37.2161 105 40.0596 105 43.5674V43.6607H103.01V43.5674C103.01 41.1981 101.156 39.2774 98.8685 39.2774C96.5812 39.2774 94.7269 41.1981 94.7269 43.5674V49.0701C95.8255 48.027 97.2902 47.3907 98.8911 47.3907C102.247 47.3907 105 50.2075 105 53.6953C105 57.1832 102.247 60 98.8911 60C95.6615 60 92.986 57.4102 92.7534 54.1154H92.7369V53.742C92.7369 53.7264 92.737 53.7109 92.7371 53.6953C92.737 53.6798 92.7369 53.6642 92.7369 53.6487V43.5674ZM94.7272 53.6953C94.7516 56.0374 96.6132 57.9387 98.8911 57.9387C101.159 57.9387 103.01 56.033 103.01 53.6953C103.01 51.3577 101.159 49.452 98.8911 49.452C96.6132 49.452 94.7516 51.3533 94.7272 53.6953Z" fill="#4D4D4D"/>
<circle cx="280" cy="47" r="5" fill="#B7B7B7"/>
<circle cx="298" cy="47" r="5" fill="#4D4D4D"/>
<circle cx="316" cy="47" r="5" fill="#B7B7B7"/>
<circle cx="334" cy="47" r="5" fill="#B7B7B7"/>
<rect x="388" y="35" width="55" height="26" stroke="#4D4D4D" stroke-width="2"/>
<path d="M394 39V48M394 57V48M394 48H401.882M401.882 48V39M401.882 48V57M418.697 39V56.0149H425.965M428.855 56.0149V39.5373H432C434.761 39.5373 437 41.7759 437 44.5373V51.0149C437 53.7764 434.761 56.0149 432 56.0149H428.855ZM414.58 43.8723V51.6799C414.58 54.0741 412.64 56.0149 410.245 56.0149V56.0149C407.851 56.0149 405.91 54.0741 405.91 51.6799V43.8723C405.91 41.4782 407.851 39.5373 410.245 39.5373V39.5373C412.64 39.5373 414.58 41.4782 414.58 43.8723Z" stroke="#4D4D4D" stroke-width="2"/>
<path fill-rule="evenodd" clip-rule="evenodd" d="M192.951 36V60H189.669L182.683 38.2687H182.416V59.995H180.41V36.2213H184.136L190.945 57.4023V36H192.951ZM163 43.1871C163 39.34 166.056 36.2213 169.825 36.2213C173.594 36.2213 176.65 39.34 176.65 43.1871V53.0342C176.65 56.8813 173.594 60 169.825 60C166.056 60 163 56.8813 163 53.0342V43.1871ZM169.825 38.2687C167.163 38.2687 165.006 40.4707 165.006 43.1871V53.0342C165.006 55.7506 167.163 57.9526 169.825 57.9526C172.486 57.9526 174.644 55.7506 174.644 53.0342V43.1871C174.644 40.4707 172.486 38.2687 169.825 38.2687ZM195.935 42.6212C195.935 39.0867 198.743 36.2213 202.206 36.2213C205.669 36.2213 208.476 39.0866 208.476 42.6212V43.5833H206.47V42.6212C206.47 40.2174 204.561 38.2687 202.206 38.2687C199.85 38.2687 197.941 40.2174 197.941 42.6212V53.6001C197.941 56.0039 199.85 57.9526 202.206 57.9526C204.561 57.9526 206.47 56.0039 206.47 53.6001V52.4117H208.476V53.6001C208.476 57.1347 205.669 60 202.206 60C198.743 60 195.935 57.1347 195.935 53.6001V42.6212ZM211.017 36.2213H222V38.2687H213.023V47.087H220.78V49.1343H213.023V57.9526H222V60H211.017V36.2213Z" fill="#4D4D4D"/>
<path fill-rule="evenodd" clip-rule="evenodd" d="M83 190.133C83 186.746 85.6863 184 89 184C92.3137 184 95 186.746 95 190.133V190.223H93.0527V190.133C93.0527 187.845 91.2382 185.99 89 185.99C86.7618 185.99 84.9473 187.845 84.9473 190.133V195.446C86.0223 194.439 87.4556 193.825 89.0221 193.825C92.3059 193.825 95 196.544 95 199.912C95 203.28 92.3059 206 89.0221 206C85.8618 206 83.2437 203.499 83.0161 200.318H83V199.957C83 199.942 83.0001 199.927 83.0002 199.912C83.0001 199.897 83 199.882 83 199.867V190.133ZM84.9475 199.912C84.9715 202.174 86.7931 204.01 89.0221 204.01C91.2416 204.01 93.0527 202.169 93.0527 199.912C93.0527 197.655 91.2416 195.815 89.0221 195.815C86.7931 195.815 84.9715 197.651 84.9475 199.912Z" fill="#898989"/>
<path fill-rule="evenodd" clip-rule="evenodd" d="M171.452 190.002H168V188H176.912V190.002H173.46V202H171.452V190.002ZM187.791 188H191.186C193.502 188 195.379 189.871 195.379 192.179C195.379 194.486 193.502 196.357 191.186 196.357H189.799V202H187.791V188ZM189.799 194.355H191.186C192.392 194.355 193.37 193.381 193.37 192.179C193.37 190.976 192.392 190.002 191.186 190.002H189.799V194.355ZM196.413 188H203.359V190.002H198.422V193.922H202.417V195.924H198.422V199.916H203.359V201.918H196.413V188ZM178.516 188H180.525V189.684L182.502 193.289L184.53 189.679V188H186.539V190.201L183.496 195.617V202H181.487V195.612L178.516 190.196V188ZM211.991 202V188.423H214V202H211.991Z" fill="#898989"/>
<path d="M61 184V205H73" stroke="#898989" stroke-width="2"/>
<path d="M295 194.778H317M317 194.778L309.518 187M317 194.778L309.518 202" stroke="#898989" stroke-width="2"/>
<rect x="160" y="181" width="65" height="27" stroke="#898989" stroke-width="2"/>
<path fill-rule="evenodd" clip-rule="evenodd" d="M429.8 185.064C428.855 185.064 428.088 185.856 428.088 186.832V190.566C428.088 191.543 428.855 192.335 429.8 192.335C430.746 192.335 431.513 191.543 431.513 190.566V186.832C431.513 185.856 430.746 185.064 429.8 185.064ZM426.09 186.832C426.09 184.716 427.751 183 429.8 183C431.849 183 433.511 184.716 433.511 186.832V190.566C433.511 192.683 431.849 194.398 429.8 194.398C427.751 194.398 426.09 192.683 426.09 190.566V186.832ZM440.289 183.285V186.353L430.709 204.182V206.528H428.711V203.647L438.291 185.818V183.285H440.289ZM396.085 183.467H407.658V185.531H398.084V195.081C399.001 194.231 400.274 193.641 401.965 193.641C405.109 193.641 407.658 196.274 407.658 199.522V200.321C407.658 204.01 404.763 207 401.192 207H396V204.936H401.192C403.66 204.936 405.66 202.87 405.66 200.321V199.522C405.66 197.414 404.006 195.705 401.965 195.705C400.451 195.705 399.54 196.348 398.97 197.12C398.366 197.936 398.118 198.94 398.082 199.587L396.085 199.527V183.467ZM416.154 185.531C413.96 185.531 412.182 187.367 412.182 189.633V200.834C412.182 203.1 413.96 204.936 416.154 204.936C418.347 204.936 420.125 203.1 420.125 200.834V189.633C420.125 187.367 418.347 185.531 416.154 185.531ZM410.184 189.633C410.184 186.227 412.857 183.467 416.154 183.467C419.451 183.467 422.123 186.227 422.123 189.633V200.834C422.123 204.239 419.451 207 416.154 207C412.857 207 410.184 204.239 410.184 200.834V189.633ZM439.29 197.105C438.344 197.105 437.577 197.897 437.577 198.874V202.608C437.577 203.584 438.344 204.376 439.29 204.376C440.235 204.376 441.002 203.584 441.002 202.608V198.874C441.002 197.897 440.235 197.105 439.29 197.105ZM435.579 198.874C435.579 196.757 437.241 195.042 439.29 195.042C441.339 195.042 443 196.757 443 198.874V202.608C443 204.724 441.339 206.44 439.29 206.44C437.241 206.44 435.579 204.724 435.579 202.608V198.874Z" fill="#898989"/>
</svg>
